<?xml version="1.0" encoding="utf-8"?>
<!-- Generator: Adobe Illustrator 24.0.2, SVG Export Plug-In . SVG Version: 6.00 Build 0)  -->
<svg version="1.1" id="Layer_1" xmlns="http://www.w3.org/2000/svg" xmlns:xlink="http://www.w3.org/1999/xlink" x="0px" y="0px"
	 viewBox="0 0 24 24" style="enable-background:new 0 0 24 24;" xml:space="preserve">
<style type="text/css">
	.st0{clip-path:url(#SVGID_2_);}
	.st1{fill:#FFFFFF;}
</style>
<g>
	<defs>
		<rect id="SVGID_1_" width="24" height="24"/>
	</defs>
	<clipPath id="SVGID_2_">
		<use xlink:href="#SVGID_1_"  style="overflow:visible;"/>
	</clipPath>
	<g class="st0">
		<g>
			<path class="st1" d="M23,12.8H5c-0.4,0-0.8-0.3-0.8-0.8s0.3-0.8,0.8-0.8h18c0.4,0,0.8,0.3,0.8,0.8S23.4,12.8,23,12.8z"/>
		</g>
		<g>
			<path class="st1" d="M12,19.8c-0.2,0-0.4-0.1-0.5-0.2l-7-7c-0.3-0.3-0.3-0.8,0-1.1l7-7c0.3-0.3,0.8-0.3,1.1,0s0.3,0.8,0,1.1
				L6.1,12l6.5,6.5c0.3,0.3,0.3,0.8,0,1.1C12.4,19.7,12.2,19.8,12,19.8z"/>
		</g>
	</g>
</g>
</svg>
