<svg width="30" height="30" viewBox="0 0 30 30" fill="none" xmlns="http://www.w3.org/2000/svg">
<path fill-rule="evenodd" clip-rule="evenodd" d="M13.75 4.75C8.77944 4.75 4.75 8.77944 4.75 13.75C4.75 18.7206 8.77944 22.75 13.75 22.75C18.7206 22.75 22.75 18.7206 22.75 13.75C22.75 8.77944 18.7206 4.75 13.75 4.75ZM2.75 13.75C2.75 7.67487 7.67487 2.75 13.75 2.75C19.8251 2.75 24.75 7.67487 24.75 13.75C24.75 19.8251 19.8251 24.75 13.75 24.75C7.67487 24.75 2.75 19.8251 2.75 13.75Z" fill="white"/>
<path fill-rule="evenodd" clip-rule="evenodd" d="M20.1054 20.1054C20.4959 19.7149 21.1291 19.7149 21.5196 20.1054L26.9571 25.5429C27.3476 25.9334 27.3476 26.5666 26.9571 26.9571C26.5666 27.3476 25.9334 27.3476 25.5429 26.9571L20.1054 21.5196C19.7149 21.1291 19.7149 20.4959 20.1054 20.1054Z" fill="white"/>
</svg>
