<?xml version="1.0" encoding="utf-8"?>
<!-- Generator: Adobe Illustrator 24.0.2, SVG Export Plug-In . SVG Version: 6.00 Build 0)  -->
<svg version="1.1" id="Layer_2_1_" xmlns="http://www.w3.org/2000/svg" xmlns:xlink="http://www.w3.org/1999/xlink" x="0px" y="0px"
	 viewBox="0 0 1400 1400" style="enable-background:new 0 0 1400 1400;" xml:space="preserve">
<style type="text/css">
	.st0{fill:#BB883F;}
	.st1{fill:#CAAE7C;}
	.st2{fill:#212121;}
</style>
<g>
	<g>
		<path class="st0" d="M545.9,925.5v8.5c0,0.4,0.1,0.7,0.3,0.9s0.5,0.4,0.9,0.5v0.6h-8v-0.6c0.5-0.1,0.8-0.3,0.9-0.5
			c0.2-0.2,0.3-0.5,0.3-0.9v-21.8c0-0.4-0.1-0.7-0.3-0.9c-0.2-0.2-0.5-0.4-0.9-0.5v-0.6h16.1c1.9,0,3.4,0.1,4.5,0.4
			c1.1,0.3,2.1,0.7,2.9,1.3c0.9,0.6,1.5,1.5,2,2.5c0.5,1.1,0.7,2.2,0.7,3.4c0,1.7-0.5,3.3-1.4,4.6c-0.8,1.1-1.9,1.9-3.2,2.4
			s-3.2,0.7-5.6,0.7L545.9,925.5L545.9,925.5z M545.9,921.3h8.6c1.7,0,2.9-0.2,3.6-0.5c0.4-0.2,0.8-0.6,1.1-1.1s0.4-1.1,0.4-1.7
			c0-0.6-0.1-1.2-0.4-1.7c-0.3-0.5-0.6-0.9-1.1-1.1c-0.7-0.4-1.9-0.5-3.6-0.5h-8.6L545.9,921.3L545.9,921.3z"/>
		<path class="st0" d="M575.5,925.5v8.6c0,0.4,0.1,0.7,0.3,0.9s0.5,0.4,0.9,0.5v0.6h-8v-0.6c0.5-0.1,0.8-0.3,0.9-0.5
			c0.2-0.2,0.3-0.5,0.3-0.9v-21.8c0-0.4-0.1-0.7-0.3-0.9s-0.5-0.4-0.9-0.5v-0.6h16.1c2,0,3.5,0.1,4.7,0.3s2.2,0.6,3,1.2
			c1,0.7,1.7,1.5,2.2,2.7c0.5,1.1,0.7,2.2,0.7,3.5c0,4.2-2.3,6.7-7,7.4l5,7.1c0.9,1.2,1.5,2.1,1.9,2.4c0.4,0.4,0.9,0.6,1.5,0.6v0.6
			h-9.3v-0.6c0.6-0.1,1-0.3,1-0.7c0-0.2-0.3-0.8-0.9-1.6l-5.2-7.6h-6.9V925.5z M575.5,921.2h8.7c1.3,0,2.2,0,2.7-0.1s1-0.2,1.5-0.5
			c1-0.5,1.4-1.4,1.4-2.8c0-1.3-0.5-2.3-1.4-2.8c-0.5-0.3-0.9-0.4-1.4-0.5s-1.4-0.1-2.7-0.1h-8.7L575.5,921.2L575.5,921.2z"/>
		<path class="st0" d="M606.8,924.7v7.1h16.6c0.4,0,0.7-0.1,0.9-0.3s0.4-0.5,0.5-0.9h0.6v6.7h-0.6c-0.1-0.5-0.3-0.8-0.5-0.9
			c-0.2-0.2-0.5-0.3-0.9-0.3H600v-0.6c0.5-0.1,0.8-0.3,0.9-0.5c0.2-0.2,0.3-0.5,0.3-0.9v-21.8c0-0.4-0.1-0.7-0.3-0.9
			s-0.5-0.4-0.9-0.5v-0.6h23c0.4,0,0.7-0.1,0.9-0.3s0.4-0.5,0.5-0.9h0.6v6.7h-0.6c-0.1-0.4-0.3-0.8-0.5-0.9
			c-0.2-0.2-0.5-0.3-0.9-0.3h-16.1v6.1h10.5c0.4,0,0.7-0.1,0.9-0.3s0.4-0.5,0.5-0.9h0.6v6.5h-0.6c-0.1-0.4-0.3-0.8-0.5-0.9
			c-0.2-0.2-0.5-0.3-0.9-0.3L606.8,924.7L606.8,924.7z"/>
		<path class="st0" d="M645.2,936l-9.5-17.8V934c0,0.4,0.1,0.7,0.3,0.9s0.5,0.4,0.9,0.5v0.6h-7.6v-0.6c0.5-0.1,0.8-0.3,0.9-0.5
			c0.2-0.2,0.3-0.5,0.3-0.9v-21.8c0-0.4-0.1-0.7-0.3-0.9s-0.5-0.4-0.9-0.5v-0.6h9.9v0.6c-0.6,0.2-0.9,0.5-0.9,1
			c0,0.3,0.1,0.5,0.3,0.9l7,13.3l7.1-13.1c0.3-0.6,0.5-1,0.5-1.3c0-0.5-0.3-0.8-0.9-0.9v-0.6h9.8v0.6c-0.5,0.1-0.8,0.3-0.9,0.5
			c-0.2,0.2-0.3,0.5-0.3,0.9v21.8c0,0.4,0.1,0.7,0.3,0.9s0.5,0.4,0.9,0.5v0.6h-8v-0.6c0.4-0.1,0.8-0.3,0.9-0.5
			c0.2-0.2,0.3-0.5,0.3-0.9v-15.8L645.2,936z"/>
		<path class="st0" d="M667.9,934v-21.8c0-0.4-0.1-0.7-0.3-0.9s-0.5-0.4-0.9-0.5v-0.6h8v0.6c-0.5,0.1-0.8,0.3-0.9,0.5
			c-0.2,0.2-0.3,0.5-0.3,0.9V934c0,0.4,0.1,0.7,0.3,0.9s0.5,0.4,0.9,0.5v0.6h-8v-0.6c0.5-0.1,0.8-0.3,0.9-0.5
			C667.8,934.7,667.9,934.4,667.9,934z"/>
		<path class="st0" d="M705.6,912.2v14.5c0,2.7-0.5,4.8-1.5,6.1c-1.8,2.4-5.6,3.7-11.2,3.7c-4.1,0-7.2-0.7-9.4-2
			c-1.3-0.8-2.2-1.8-2.6-3.1c-0.5-1.3-0.7-2.9-0.7-4.7v-14.5c0-0.4-0.1-0.7-0.3-0.9s-0.5-0.4-0.9-0.5v-0.6h8v0.6
			c-0.4,0.1-0.8,0.3-0.9,0.5c-0.2,0.2-0.3,0.5-0.3,0.9v12.9c0,1.5,0.1,2.6,0.2,3.3c0.2,0.7,0.5,1.3,0.9,1.8c1.2,1.3,3.3,1.9,6.2,1.9
			s5-0.6,6.2-1.9c0.4-0.5,0.7-1.1,0.9-1.8s0.2-1.8,0.2-3.3v-12.9c0-0.4-0.1-0.7-0.3-0.9s-0.5-0.4-0.9-0.5v-0.6h7.6v0.6
			c-0.5,0.1-0.8,0.3-0.9,0.5C705.7,911.5,705.6,911.8,705.6,912.2z"/>
		<path class="st0" d="M726.8,936l-9.5-17.8V934c0,0.4,0.1,0.7,0.3,0.9s0.5,0.4,0.9,0.5v0.6H711v-0.6c0.5-0.1,0.8-0.3,0.9-0.5
			c0.2-0.2,0.3-0.5,0.3-0.9v-21.8c0-0.4-0.1-0.7-0.3-0.9s-0.5-0.4-0.9-0.5v-0.6h9.9v0.6c-0.6,0.2-0.9,0.5-0.9,1
			c0,0.3,0.1,0.5,0.3,0.9l7,13.3l7.1-13.1c0.3-0.6,0.5-1,0.5-1.3c0-0.5-0.3-0.8-0.9-0.9v-0.6h9.7v0.6c-0.5,0.1-0.8,0.3-0.9,0.5
			c-0.2,0.2-0.3,0.5-0.3,0.9v21.8c0,0.4,0.1,0.7,0.3,0.9s0.5,0.4,0.9,0.5v0.6h-8v-0.6c0.4-0.1,0.8-0.3,0.9-0.5
			c0.2-0.2,0.3-0.5,0.3-0.9v-15.8L726.8,936z"/>
		<path class="st0" d="M783,932.7l2,2.1c0.5,0.5,0.8,0.8,0.9,0.9c0.2,0.1,0.3,0.2,0.6,0.2c0.2,0,0.5-0.1,0.9-0.2l0.4,0.5l-5.5,5
			l-0.4-0.5c0.3-0.4,0.4-0.7,0.4-0.9s-0.4-0.8-1.1-1.6l-2.2-2.7c-1.9,0.8-4.1,1.1-6.8,1.1c-4.4,0-7.9-1.2-10.5-3.6
			c-1.4-1.3-2.5-2.9-3.2-4.7c-0.6-1.6-1-3.3-1-5c0-2.6,0.7-4.9,2-7.1c2.6-4.2,6.9-6.3,12.8-6.3c4.5,0,8,1.2,10.6,3.6
			c1.4,1.3,2.5,2.8,3.2,4.6c0.6,1.6,1,3.3,1,5C787.1,926.9,785.7,930.1,783,932.7z M779.3,928.9c1.3-1.7,2-3.6,2-5.8
			c0-2.8-1-5-2.9-6.8c-1.6-1.5-3.7-2.2-6.2-2.2s-4.6,0.7-6.2,2.2c-1.9,1.7-2.9,4-2.9,6.8s1,5.1,2.9,6.8c1.6,1.5,3.7,2.2,6.2,2.2
			c1.2,0,2.3-0.2,3.5-0.6c-0.1-0.2-0.3-0.3-0.4-0.5c-1.3-1.7-2.9-2.8-4.7-3.2v-0.5c0.9-0.7,1.9-1.1,3.1-1.1c0.8,0,1.7,0.2,2.5,0.6
			C777.1,927.2,778.1,927.9,779.3,928.9z"/>
		<path class="st0" d="M817.3,912.2v14.5c0,2.7-0.5,4.8-1.5,6.1c-1.8,2.4-5.6,3.7-11.2,3.7c-4.1,0-7.2-0.7-9.4-2
			c-1.3-0.8-2.2-1.8-2.6-3.1c-0.5-1.3-0.7-2.9-0.7-4.7v-14.5c0-0.4-0.1-0.7-0.3-0.9s-0.5-0.4-0.9-0.5v-0.6h8v0.6
			c-0.4,0.1-0.8,0.3-0.9,0.5c-0.2,0.2-0.3,0.5-0.3,0.9v12.9c0,1.5,0.1,2.6,0.2,3.3c0.2,0.7,0.5,1.3,0.9,1.8c1.2,1.3,3.3,1.9,6.2,1.9
			s5-0.6,6.2-1.9c0.4-0.5,0.7-1.1,0.9-1.8s0.2-1.8,0.2-3.3v-12.9c0-0.4-0.1-0.7-0.3-0.9s-0.5-0.4-0.9-0.5v-0.6h7.6v0.6
			c-0.5,0.1-0.8,0.3-0.9,0.5C817.4,911.5,817.3,911.8,817.3,912.2z"/>
		<path class="st0" d="M839.9,929.4h-11.7l-1.7,3.6c-0.2,0.5-0.4,0.9-0.4,1.2c0,0.6,0.4,0.9,1.3,1.2v0.6h-8.5v-0.6
			c0.5-0.1,0.9-0.3,1.2-0.5c0.3-0.3,0.6-0.7,0.9-1.5l9.5-19.8c0.3-0.6,0.5-1.1,0.5-1.5c0-0.6-0.4-1-1.1-1.2v-0.6h9.1v0.6
			c-0.7,0.2-1.1,0.6-1.1,1.1c0,0.4,0.1,0.8,0.4,1.2l9.8,19.9c0.4,0.8,0.8,1.4,1.1,1.7s0.7,0.5,1.3,0.6v0.6H841v-0.6
			c0.8-0.1,1.3-0.5,1.3-1.2c0-0.3-0.1-0.7-0.4-1.2L839.9,929.4z M838.2,925.9l-4.2-9.2l-4.2,9.2H838.2z"/>
		<path class="st0" d="M859.3,931.7h15.8c0.4,0,0.7-0.1,0.9-0.3s0.4-0.5,0.5-0.9h0.6v6.7h-0.6c-0.1-0.5-0.3-0.8-0.5-0.9
			c-0.2-0.2-0.5-0.3-0.9-0.3h-22.7v-0.6c0.5-0.1,0.8-0.3,0.9-0.5c0.2-0.2,0.3-0.5,0.3-0.9v-21.8c0-0.4-0.1-0.7-0.3-0.9
			s-0.5-0.4-0.9-0.5v-0.6h8v0.6c-0.5,0.1-0.8,0.3-0.9,0.5c-0.2,0.2-0.3,0.5-0.3,0.9v19.5H859.3z"/>
		<path class="st0" d="M881,934v-21.8c0-0.4-0.1-0.7-0.3-0.9s-0.5-0.4-0.9-0.5v-0.6h8v0.6c-0.5,0.1-0.8,0.3-0.9,0.5
			c-0.2,0.2-0.3,0.5-0.3,0.9V934c0,0.4,0.1,0.7,0.3,0.9s0.5,0.4,0.9,0.5v0.6h-8v-0.6c0.5-0.1,0.8-0.3,0.9-0.5
			C880.9,934.7,881,934.4,881,934z"/>
		<path class="st0" d="M906,914.4V934c0,0.4,0.1,0.7,0.3,0.9s0.5,0.4,0.9,0.5v0.6h-8v-0.6c0.5-0.1,0.8-0.3,0.9-0.5
			c0.2-0.2,0.3-0.5,0.3-0.9v-19.6h-8c-0.4,0-0.7,0.1-0.9,0.3s-0.4,0.5-0.5,0.9h-0.6v-6.7h0.6c0.1,0.5,0.3,0.8,0.5,0.9
			c0.2,0.2,0.5,0.3,0.9,0.3H914c0.4,0,0.7-0.1,0.9-0.3s0.4-0.5,0.5-0.9h0.6v6.7h-0.6c-0.1-0.5-0.3-0.8-0.5-0.9
			c-0.2-0.2-0.5-0.3-0.9-0.3H906z"/>
		<path class="st0" d="M934.7,925.2v8.8c0,0.4,0.1,0.7,0.3,0.9s0.5,0.4,0.9,0.5v0.6h-8.1v-0.6c0.5-0.1,0.8-0.3,1-0.5
			s0.3-0.5,0.3-0.9v-8.8l-8.3-11.7c-0.7-1-1.3-1.7-1.7-2s-0.9-0.6-1.5-0.6v-0.6h10.2v0.6c-0.8,0.1-1.3,0.5-1.3,1.2
			c0,0.2,0.3,0.7,0.8,1.5l4.6,6.9l4.8-6.9c0.5-0.7,0.8-1.2,0.8-1.5s-0.1-0.5-0.3-0.7s-0.5-0.3-0.9-0.4v-0.6h10v0.6
			c-0.6,0.1-1.1,0.3-1.5,0.6s-1,1-1.7,2L934.7,925.2z"/>
	</g>
	<g>
		<g>
			<path class="st1" d="M508.2,769.9v27.4c0,12.6-3.6,21.9-10.8,27.8c-7.2,5.9-17.2,8.9-30.1,8.9c-11.4,0-20.7-3.3-27.9-9.8
				c-7.2-6.5-10.8-15.8-10.8-27.8v-67.3c0-14.4,3.2-25.2,9.5-32.3s16.3-10.7,29.8-10.7c5.5,0,10.6,0.7,15.3,2
				c4.7,1.4,8.8,3.4,12.4,6.1c3.6,2.7,6.5,6.2,8.5,10.5c2.1,4.3,3.1,9.3,3.1,15v25.6h-31.7v-16.8c0-8.7-2.6-13-7.7-13
				c-3,0-5,1-6,2.9s-1.5,4.6-1.5,8V795c0,3,0.7,5.6,2.1,7.7c1.4,2.2,3.2,3.3,5.4,3.3c2.1,0,3.9-0.8,5.4-2.4c1.5-1.6,2.3-4.5,2.3-8.6
				v-25L508.2,769.9L508.2,769.9z"/>
			<path class="st1" d="M549.1,793.3v-69.1c0-12.1,3.3-21.5,9.8-28.1c6.5-6.7,16.4-10.1,29.5-10.2c13.5,0.2,23.5,3.6,30,10.2
				c6.5,6.7,9.8,16,9.8,28.1v69.1c0,5.9-0.7,11.3-2.2,16.1s-3.8,9.1-6.8,12.9c-3,3.8-7.2,6.7-12.3,8.7c-5.2,2.1-11.2,3-17.9,2.8
				c-7.1,0.2-13.3-0.8-18.4-2.8c-5.2-2.1-9.3-5-12.3-8.7c-3-3.8-5.3-8.1-6.8-12.9C549.9,804.5,549.1,799.2,549.1,793.3z
				 M588.7,805.4c1.2,0,2.2-0.2,3.1-0.7c0.9-0.5,1.6-1.2,2.1-2.1c0.5-0.9,0.9-1.8,1.2-2.7s0.5-2,0.6-3.4s0.2-2.5,0.2-3.3
				s0-1.8,0-3.1c0-0.3,0-0.5,0-0.7v-58.3c0-0.4,0-1.1,0-2.2c0-1.1,0-1.9,0-2.5c0-0.5-0.1-1.4-0.1-2.4c0-1.1-0.1-1.9-0.3-2.5
				s-0.3-1.3-0.5-2.2s-0.5-1.5-0.9-2s-0.8-0.9-1.3-1.5c-0.5-0.5-1.1-0.9-1.8-1.1c-0.7-0.2-1.5-0.3-2.5-0.3c-1.3,0-2.4,0.2-3.3,0.6
				c-0.9,0.4-1.7,1.1-2.2,2s-1,1.8-1.4,2.6s-0.6,1.9-0.7,3.4c-0.1,1.5-0.2,2.6-0.2,3.2c0,0.6,0,1.7,0,3.2c0,0.2,0,0.5,0,0.6
				c0,0.2,0,0.4,0,0.5v58.3c0,1.3,0,2.4,0,3.2s0.1,1.9,0.2,3.5c0.1,1.5,0.3,2.7,0.7,3.7c0.3,0.9,0.8,1.9,1.3,3
				c0.5,1,1.3,1.8,2.2,2.3C586.3,805.1,587.4,805.4,588.7,805.4z"/>
			<path class="st1" d="M672,832.4V687.3h64.1v28.3h-31.9v23h30.2v28h-30.2v65.9L672,832.4L672,832.4z"/>
			<path class="st1" d="M776.9,832.4V687.3H841v28.3h-31.9v23h30.2v28h-30.2v65.9L776.9,832.4L776.9,832.4z"/>
			<path class="st1" d="M881.9,832.4V687.3H946v28.2h-31.5v28.3h30.2V771h-30.2v33.1h33.6v28.3L881.9,832.4L881.9,832.4z"/>
			<path class="st1" d="M990.2,832.4V687.3h64.1v28.2h-31.5v28.3h30.2V771h-30.2v33.1h33.6v28.3L990.2,832.4L990.2,832.4z"/>
		</g>
		<g>
			<rect x="426.3" y="647.4" class="st0" width="632.7" height="5.3"/>
			<rect x="426.3" y="867.2" class="st0" width="632.7" height="5.3"/>
		</g>
	</g>
	<g>
		<g>
			<path class="st0" d="M889.6,458.5c-10.3-16.7-37.6-10.8-40.7-10.1l-4.2,1l-0.8,4.3c-1.5,7.5-8.2,11.8-14.6,14.3
				c1.5-9.7,3.3-17.1,4.6-21.8c0.8-2.7-1.3-5.4-4.1-5.4h-176c-2.8,0-4.9,2.7-4.1,5.4c2.3,8.1,6.1,25,6.9,47.6
				c1.1,32.5-1.5,48.9,6,68.3c7.5,19.4,37.7,35.1,37.7,35.1h36c-2-1.8-3.4-3.7-4.5-7.6c-1.7-5.9-16.9-8.9-24.8-9.6
				c-0.7-0.1-1.1-0.1-1.1-0.1c0.4,0,0.7,0.1,1.1,0.1c7.6,0.6,52.1,3.5,67.8-5.8c17.2-10.2,21.7-17.5,23.9-32.9
				c3.5-24.1-2.5-73.2,9.5-94.6h17.2c0,0-6.5,15.2-6.7,36.1c-0.2,20.9,0.8,57.9-4.5,73.7c-5.5,16.6-31.1,33.7-42.8,40.7h11.8
				c0,0,30.2-15.7,37.7-35.1c7.5-19.4,4.9-35.8,6-68.3c0.1-3.9,0.4-7.7,0.7-11.2c9.4-2.5,23.2-8.3,28.2-21.7
				c7.5-1.1,18.9-0.9,22.4,4.8c2.8,4.6,3.5,11.2,1.6,17.5c-2.9,10-11.4,19-24.1,25.2c-26.5,13.1-32.2,31.8-27.7,40.9
				c2.9,5.9,8,7.9,12.4,7.9c1.7,0,3.2-0.3,4.5-0.7c3.5-1.2,5.3-5.1,4.1-8.6s-5.1-5.3-8.6-4.1h-0.1c0-0.1-0.1-0.1-0.1-0.2
				c-0.8-2.3,2.5-13.6,21.6-23c16.1-7.9,27.1-19.9,31-33.6C895.6,476.8,894.4,466.5,889.6,458.5z M673.8,510.6c0,0-3-40.7-6.5-49.1
				s-9.1-14.4-9.1-14.4h12.7c0,0,2.6,13.4,3,24.3C674.2,482.2,673.8,510.6,673.8,510.6z M853.6,459.3c0,0-3,8.7-9.8,13.3
				c-6.8,4.7-16.2,7.1-16.2,7.1l0.8-6.4c0,0,8.8,0.6,15.3-3.8c5.5-3.7,8-12.4,8-12.4c17.2-3,24.1,3.5,24.1,3.5
				C867,455.8,853.6,459.3,853.6,459.3z M843.6,550.7c-0.4-2.2,2.3-4.2,2.3-4.2s2.8,2,1.7,5c-0.9,2.4-3.5,4.4-8.9,4.1
				c-4.6-0.2-7.5-4-7.5-4s5.4,2.8,8.1,2.8C842.1,554.5,844,552.9,843.6,550.7z M892.1,480.9c-1.9,12.7-7.2,19.7-16.5,28.7
				c-5.8,5.7-22,12.6-28.3,18.3c-8.5,7.7-9.8,14.4-8.8,17.7c0,0-1.2,1.2-1,2.6c0,0-3.9-0.3-1.9-10.3c1.2-6.2,7.2-12.6,15.9-17.1
				c24.5-12.6,29.9-18.5,36.2-30.6c4.7-8.9,3.4-20.6,2.1-25.6C889.9,464.6,893.6,470.4,892.1,480.9z"/>
			<path class="st0" d="M862.6,602.8H741.8H621c-2,0-2.5,2.5-0.6,3.1l57.5,17.5l3.9,6.2h59.9h59.9l3.9-6.2l57.5-17.5
				C865.1,605.3,864.6,602.8,862.6,602.8z M801.5,621.6l-3.1,5.8h-59.7c0,0,21.6-0.8,23.5-1.6c3.5-1.5,1.1-2.7,5.4-3.2
				c4.2-0.5,24.8-1.1,24.8-1.1l-95.7,0.5c0,0,42.2-1.9,44.2-3.2c2-1.4-7.2-2.5-6.7-5s-81.5-7.1-81.5-7.1h196.4L801.5,621.6z"/>
			<path class="st1" d="M736.5,433.5h13.1c0.2-0.9-2.1-5.3-2.1-5.3c4.3,2.2,4.3,5.3,4.3,5.3h11c0,0-0.1-2-2-4.6s-12.8-6.3-14.3-8.2
				c-1.5-2,2.2-5.3,2.2-5.3s-8.7,2.8-11.8,4.4s-0.3,8.6-0.3,8.6s-3-3.6-2.3-7.6c0.7-3.9,14.6-8,20.8-9.7c6.3-1.7,11.5-8.7,11.5-8.7
				c-3.1,5.9-10.5,9.4-10.5,9.4c1.2,0.2,6.6,1.3,12.8-6.4c6.2-7.7,3.6-17.1,3-22.6c-0.7-5.5-9.4-13-13.7-14.7s-6.7-4.2-6.7-4.2
				s-1,1.9,0.3,3.3s5,4.5,5,4.5s-1.5-0.2-6.2-3.4c-4.7-3.2,6.3-14.4,5-20s-10.5-5.6-12.9-7.7s3.3-8.6,3.3-8.6
				c-4.6,1.3-12.1,11-5.5,12.9c6.5,1.9,6.7,7.5,4.7,13.4c-2.1,6-6.3,6.5-2.4,14.9c3.9,8.4,13.3,7.7,13.3,7.7c-3.2-4-7.5-7.7-7.5-7.7
				s0,0,6.2,3.7s11,13.2,4.5,23.6c-6.5,10.5-19.7,2.7-27.1,13.4C724.9,424.8,736.5,433.5,736.5,433.5z"/>
		</g>
		<g>
			<path class="st0" d="M483.2,543h-72.3c-1.4,0-2.5-1.1-2.5-2.5s1.1-2.5,2.5-2.5h72.3c1.4,0,2.5,1.1,2.5,2.5S484.6,543,483.2,543z"
				/>
			<path class="st0" d="M526.1,543h-28.9c-1.4,0-2.5-1.1-2.5-2.5s1.1-2.5,2.5-2.5h28.9c1.4,0,2.5,1.1,2.5,2.5S527.5,543,526.1,543z"
				/>
			<path class="st0" d="M541.1,543h-15c-1.4,0-2.5-1.1-2.5-2.5s1.1-2.5,2.5-2.5h15c1.4,0,2.5,1.1,2.5,2.5S542.5,543,541.1,543z"/>
			<path class="st0" d="M605,543h-12.8c-1.4,0-2.5-1.1-2.5-2.5s1.1-2.5,2.5-2.5H605c1.4,0,2.5,1.1,2.5,2.5S606.3,543,605,543z"/>
			<path class="st0" d="M544.4,396.5c-0.6,0-1.3-0.2-1.7-0.7L529,382.2c-1-1-1-2.5,0-3.5s2.5-1,3.5,0l13.6,13.6c1,1,1,2.5,0,3.5
				C545.7,396.3,545.1,396.5,544.4,396.5z"/>
			<path class="st0" d="M598.2,450.2c-0.6,0-1.3-0.2-1.7-0.7L557,410c-1-1-1-2.5,0-3.5s2.5-1,3.5,0L600,446c1,1,1,2.5,0,3.5
				C599.4,450,598.8,450.2,598.2,450.2z"/>
			<path class="st0" d="M616.2,468.3c-0.6,0-1.3-0.2-1.7-0.7l-11.2-11.2c-1-1-1-2.5,0-3.5s2.5-1,3.5,0l11.2,11.2c1,1,1,2.5,0,3.5
				C617.5,468,616.8,468.3,616.2,468.3z"/>
			<path class="st0" d="M522.5,474.7c-0.3,0-0.6-0.1-0.9-0.2l-58.3-23.7c-1.3-0.5-1.9-2-1.4-3.2c0.5-1.3,2-1.9,3.2-1.4l58.3,23.7
				c1.3,0.5,1.9,2,1.4,3.2C524.4,474.1,523.4,474.7,522.5,474.7z"/>
			<path class="st0" d="M571.6,494.6c-0.3,0-0.6-0.1-0.9-0.2l-33.3-13.5c-1.3-0.5-1.9-2-1.4-3.2c0.5-1.3,2-1.9,3.2-1.4l33.3,13.5
				c1.3,0.5,1.9,2,1.4,3.2C573.5,494,572.5,494.6,571.6,494.6z"/>
			<path class="st0" d="M595.8,504.4c-0.3,0-0.6-0.1-0.9-0.2l-11.9-4.7c-1.3-0.5-1.9-2-1.4-3.2c0.5-1.3,2-1.9,3.2-1.4l11.8,4.8
				c1.3,0.5,1.9,2,1.4,3.2C597.7,503.9,596.8,504.4,595.8,504.4z"/>
			<path class="st0" d="M601.1,330.7c-1,0-1.9-0.6-2.3-1.5l-6-14.1c-0.5-1.3,0.1-2.7,1.3-3.2c1.3-0.5,2.7,0.1,3.2,1.3l6,14.1
				c0.5,1.3-0.1,2.7-1.3,3.2C601.8,330.6,601.5,330.7,601.1,330.7z"/>
			<path class="st0" d="M616.2,366.2c-1,0-1.9-0.6-2.3-1.5l-11.2-26.6c-0.5-1.3,0.1-2.7,1.3-3.2c1.3-0.5,2.7,0.1,3.2,1.3l11.2,26.6
				c0.5,1.3-0.1,2.7-1.3,3.2C616.8,366.2,616.5,366.2,616.2,366.2z"/>
			<path class="st0" d="M635,410.8c-1,0-1.9-0.6-2.3-1.5l-12.1-28.6c-0.5-1.3,0.1-2.7,1.3-3.2c1.3-0.5,2.7,0.1,3.2,1.3l12.1,28.6
				c0.5,1.3-0.1,2.7-1.3,3.2C635.7,410.7,635.3,410.8,635,410.8z"/>
			<path class="st0" d="M497.2,502c-0.2,0-0.3,0-0.5-0.1l-61.5-13c-1.3-0.3-2.2-1.6-1.9-2.9c0.3-1.3,1.6-2.2,2.9-1.9l61.5,13
				c1.3,0.3,2.2,1.6,1.9,2.9C499.4,501.2,498.4,502,497.2,502z"/>
			<path class="st0" d="M581.8,519.9c-0.2,0-0.3,0-0.5-0.1l-63.1-13.3c-1.3-0.3-2.2-1.6-1.9-2.9c0.3-1.3,1.6-2.2,2.9-1.9l63.1,13.4
				c1.3,0.3,2.2,1.6,1.9,2.9C584,519.1,583,519.9,581.8,519.9z"/>
			<path class="st0" d="M608.9,525.7c-0.2,0-0.3,0-0.5-0.1l-15.5-3.3c-1.3-0.3-2.2-1.6-1.9-2.9c0.3-1.3,1.6-2.2,2.9-1.9l15.5,3.3
				c1.3,0.3,2.2,1.6,1.9,2.9C611.1,524.9,610.1,525.7,608.9,525.7z"/>
			<path class="st0" d="M571.6,359.6c-0.8,0-1.6-0.4-2.1-1.1l-3-4.6c-0.7-1.1-0.4-2.7,0.7-3.4c1.1-0.7,2.7-0.4,3.4,0.7l3,4.6
				c0.7,1.1,0.4,2.7-0.7,3.4C572.5,359.4,572,359.6,571.6,359.6z"/>
			<path class="st0" d="M592.1,391.2c-0.8,0-1.6-0.4-2.1-1.1l-8.1-12.5c-0.7-1.1-0.4-2.7,0.7-3.4s2.7-0.4,3.4,0.7l8.1,12.5
				c0.7,1.1,0.4,2.7-0.7,3.4C593,391,592.6,391.2,592.1,391.2z"/>
			<path class="st0" d="M622.5,437.8c-0.8,0-1.6-0.4-2.1-1.1l-8.2-12.6c-0.7-1.1-0.4-2.7,0.7-3.4c1.1-0.7,2.7-0.4,3.4,0.7l8.2,12.6
				c0.7,1.1,0.4,2.7-0.7,3.4C623.4,437.6,622.9,437.8,622.5,437.8z"/>
			<path class="st0" d="M522.9,429.6c-0.5,0-1-0.1-1.4-0.4l-47.2-31.9c-1.1-0.8-1.4-2.3-0.7-3.4c0.8-1.1,2.3-1.4,3.4-0.7l47.2,31.9
				c1.1,0.8,1.4,2.3,0.7,3.4C524.5,429.2,523.7,429.6,522.9,429.6z"/>
			<path class="st0" d="M569.6,461.1c-0.5,0-1-0.1-1.4-0.4l-32.4-21.9c-1.1-0.8-1.4-2.3-0.7-3.4c0.8-1.1,2.3-1.4,3.4-0.7l32.4,21.9
				c1.1,0.8,1.4,2.3,0.7,3.4C571.2,460.7,570.4,461.1,569.6,461.1z"/>
			<path class="st0" d="M588,473.6c-0.5,0-1-0.1-1.4-0.4l-10.3-6.9c-1.1-0.8-1.4-2.3-0.7-3.4c0.8-1.1,2.3-1.4,3.4-0.7l10.3,6.9
				c1.1,0.8,1.4,2.3,0.7,3.4C589.6,473.2,588.8,473.6,588,473.6z"/>
			<path class="st0" d="M614.3,491.3c-0.5,0-1-0.1-1.4-0.4l-10.7-7.2c-1.1-0.8-1.4-2.3-0.7-3.4c0.8-1.1,2.3-1.4,3.4-0.7l10.7,7.2
				c1.1,0.8,1.4,2.3,0.7,3.4C615.9,490.9,615.1,491.3,614.3,491.3z"/>
			<path class="st0" d="M659.4,380.5c-1.2,0-2.2-0.8-2.4-2l-11.5-59.1c-0.3-1.3,0.6-2.6,2-2.9c1.3-0.3,2.6,0.6,2.9,2l11.5,59.1
				c0.3,1.3-0.6,2.6-2,2.9C659.7,380.5,659.6,380.5,659.4,380.5z"/>
			<path class="st0" d="M664,404.2c-1.2,0-2.2-0.8-2.4-2l-2.2-11.4c-0.3-1.3,0.6-2.6,2-2.9c1.3-0.3,2.6,0.6,2.9,2l2.2,11.4
				c0.3,1.3-0.6,2.6-2,2.9C664.3,404.2,664.2,404.2,664,404.2z"/>
		</g>
		<g>
			<path class="st0" d="M1081.3,543.6H1009c-1.4,0-2.5-1.1-2.5-2.5s1.1-2.5,2.5-2.5h72.3c1.4,0,2.5,1.1,2.5,2.5
				S1082.6,543.6,1081.3,543.6z"/>
			<path class="st0" d="M995,543.6h-28.9c-1.4,0-2.5-1.1-2.5-2.5s1.1-2.5,2.5-2.5H995c1.4,0,2.5,1.1,2.5,2.5S996.3,543.6,995,543.6z
				"/>
			<path class="st0" d="M966.1,543.6h-15c-1.4,0-2.5-1.1-2.5-2.5s1.1-2.5,2.5-2.5h15c1.4,0,2.5,1.1,2.5,2.5S967.4,543.6,966.1,543.6
				z"/>
			<path class="st0" d="M900.1,543.6h-12.8c-1.4,0-2.5-1.1-2.5-2.5s1.1-2.5,2.5-2.5h12.8c1.4,0,2.5,1.1,2.5,2.5
				S901.4,543.6,900.1,543.6z"/>
			<path class="st0" d="M947.8,397c-0.6,0-1.3-0.2-1.7-0.7c-1-1-1-2.5,0-3.5l13.6-13.6c1-1,2.5-1,3.5,0s1,2.5,0,3.5l-13.6,13.6
				C949,396.8,948.4,397,947.8,397z"/>
			<path class="st0" d="M894,450.8c-0.6,0-1.3-0.2-1.7-0.7c-1-1-1-2.5,0-3.5l39.5-39.5c1-1,2.5-1,3.5,0s1,2.5,0,3.5l-39.5,39.5
				C895.3,450.5,894.7,450.8,894,450.8z"/>
			<path class="st0" d="M969.7,475.2c-1,0-1.9-0.6-2.3-1.5c-0.5-1.3,0.1-2.7,1.4-3.2l58.3-23.7c1.3-0.5,2.7,0.1,3.2,1.4
				s-0.1,2.7-1.4,3.2l-58.3,23.7C970.3,475.2,970,475.2,969.7,475.2z"/>
			<path class="st0" d="M920.6,495.1c-1,0-1.9-0.6-2.3-1.5c-0.5-1.3,0.1-2.7,1.4-3.2l33.3-13.5c1.3-0.5,2.7,0.1,3.2,1.4
				s-0.1,2.7-1.4,3.2L921.5,495C921.3,495.1,920.9,495.1,920.6,495.1z"/>
			<path class="st0" d="M896.4,505c-1,0-1.9-0.6-2.3-1.5c-0.5-1.3,0.1-2.7,1.4-3.2l11.8-4.8c1.3-0.5,2.7,0.1,3.2,1.4
				c0.5,1.3-0.1,2.7-1.4,3.2l-11.8,4.8C897,504.9,896.7,505,896.4,505z"/>
			<path class="st0" d="M891,331.2c-0.3,0-0.6-0.1-1-0.2c-1.3-0.5-1.8-2-1.3-3.2l6-14.1c0.5-1.3,2-1.8,3.2-1.3
				c1.3,0.5,1.8,2,1.3,3.2l-6,14.1C892.9,330.6,892,331.2,891,331.2z"/>
			<path class="st0" d="M876,366.8c-0.3,0-0.6-0.1-1-0.2c-1.3-0.5-1.8-2-1.3-3.2l11.2-26.6c0.5-1.3,2-1.8,3.2-1.3
				c1.3,0.5,1.8,2,1.3,3.2l-11.2,26.6C877.9,366.2,877,366.8,876,366.8z"/>
			<path class="st0" d="M857.2,411.3c-0.3,0-0.6-0.1-1-0.2c-1.3-0.5-1.8-2-1.3-3.2l12.1-28.6c0.5-1.3,2-1.8,3.2-1.3
				c1.3,0.5,1.8,2,1.3,3.2l-12.1,28.6C859,410.7,858.1,411.3,857.2,411.3z"/>
			<path class="st0" d="M995,502.6c-1.1,0-2.2-0.8-2.4-2c-0.3-1.3,0.6-2.6,1.9-2.9l61.5-13c1.3-0.3,2.6,0.6,2.9,1.9
				c0.3,1.3-0.6,2.6-1.9,2.9l-61.5,13C995.3,502.6,995.2,502.6,995,502.6z"/>
			<path class="st0" d="M910.4,520.5c-1.1,0-2.2-0.8-2.4-2c-0.3-1.3,0.6-2.6,1.9-2.9l63.1-13.4c1.3-0.3,2.6,0.6,2.9,1.9
				c0.3,1.3-0.6,2.6-1.9,2.9l-63.1,13.4C910.7,520.5,910.5,520.5,910.4,520.5z"/>
			<path class="st0" d="M883.3,526.2c-1.1,0-2.2-0.8-2.4-2c-0.3-1.3,0.6-2.6,1.9-2.9l15.5-3.3c1.3-0.3,2.6,0.6,2.9,1.9
				c0.3,1.3-0.6,2.6-1.9,2.9l-15.5,3.3C883.6,526.2,883.4,526.2,883.3,526.2z"/>
			<path class="st0" d="M920.6,360.1c-0.5,0-0.9-0.1-1.3-0.4c-1.1-0.7-1.5-2.3-0.7-3.4l3-4.6c0.7-1.1,2.3-1.5,3.4-0.7
				c1.1,0.7,1.5,2.3,0.7,3.4l-3,4.6C922.2,359.7,921.4,360.1,920.6,360.1z"/>
			<path class="st0" d="M900.1,391.7c-0.5,0-0.9-0.1-1.3-0.4c-1.1-0.7-1.5-2.3-0.7-3.4l8.1-12.5c0.7-1.1,2.3-1.5,3.4-0.7
				c1.1,0.7,1.5,2.3,0.7,3.4l-8.1,12.5C901.7,391.3,900.9,391.7,900.1,391.7z"/>
			<path class="st0" d="M869.7,438.3c-0.5,0-0.9-0.1-1.3-0.4c-1.1-0.7-1.5-2.3-0.7-3.4l8.2-12.6c0.7-1.1,2.3-1.5,3.4-0.7
				c1.1,0.7,1.5,2.3,0.7,3.4l-8.2,12.6C871.3,437.9,870.5,438.3,869.7,438.3z"/>
			<path class="st0" d="M969.3,430.1c-0.8,0-1.6-0.4-2-1.1c-0.8-1.1-0.5-2.7,0.7-3.4l47.2-31.9c1.1-0.8,2.7-0.5,3.4,0.7
				c0.8,1.1,0.5,2.7-0.7,3.4l-47.2,31.9C970.2,430,969.7,430.1,969.3,430.1z"/>
			<path class="st0" d="M922.6,461.6c-0.8,0-1.6-0.4-2-1.1c-0.8-1.1-0.5-2.7,0.7-3.4l32.4-21.9c1.1-0.8,2.7-0.5,3.4,0.7
				c0.8,1.1,0.5,2.7-0.7,3.4L924,461.2C923.5,461.5,923.1,461.6,922.6,461.6z"/>
			<path class="st0" d="M904.1,474.1c-0.8,0-1.6-0.4-2-1.1c-0.8-1.1-0.5-2.7,0.7-3.4l10.3-6.9c1.1-0.8,2.7-0.5,3.4,0.7
				c0.8,1.1,0.5,2.7-0.7,3.4l-10.3,6.9C905.1,473.9,904.6,474.1,904.1,474.1z"/>
			<path class="st0" d="M832.8,381c-0.2,0-0.3,0-0.5,0c-1.3-0.3-2.2-1.6-2-2.9l11.5-59.1c0.3-1.3,1.6-2.2,2.9-2
				c1.3,0.3,2.2,1.6,2,2.9L835.2,379C835,380.2,833.9,381,832.8,381z"/>
			<path class="st0" d="M828.2,404.7c-0.2,0-0.3,0-0.5,0c-1.3-0.3-2.2-1.6-2-2.9l2.2-11.4c0.3-1.3,1.6-2.2,2.9-2
				c1.3,0.3,2.2,1.6,2,2.9l-2.2,11.4C830.4,403.9,829.3,404.7,828.2,404.7z"/>
		</g>
		<path class="st0" d="M684.7,399c-1.3,0-2.3-1-2.5-2.3l-6.6-77.7c-0.1-1.4,0.9-2.6,2.3-2.7c1.4-0.1,2.6,0.9,2.7,2.3l6.6,77.7
			c0.1,1.4-0.9,2.6-2.3,2.7C684.8,399,684.8,399,684.7,399z"/>
		<path class="st0" d="M808.2,399c-0.1,0-0.2,0-0.4,0c-1.3-0.2-2.3-1.5-2.1-2.8l6.2-41.7c0.2-1.3,1.5-2.3,2.8-2.1
			c1.3,0.2,2.3,1.5,2.1,2.8l-6.2,41.7C810.5,398.1,809.4,399,808.2,399z"/>
		<path class="st0" d="M817,340.2c-0.1,0-0.2,0-0.4,0c-1.3-0.2-2.3-1.5-2.1-2.8l2.7-18.3c0.2-1.3,1.5-2.3,2.8-2.1
			c1.3,0.2,2.3,1.5,2.1,2.8l-2.7,18.3C819.3,339.3,818.2,340.2,817,340.2z"/>
	</g>
	<path class="st0" d="M744,211.5c-257.9,0-467,209.1-467,467s209.1,467,467,467s467-209.1,467-467S1001.9,211.5,744,211.5z
		 M1152.6,724.5L1152.6,724.5c-20.8,17.4-26.7,46.9-14.4,71l0,0c16.4,32,0,71.1-34.3,81.9l0,0c-25.8,8.1-42.6,33.1-40.5,60.1l0,0
		c2.9,35.9-27.2,65.7-63,62.5l0,0c-27-2.4-52,14.2-60.4,40c-11.1,34.2-50.2,50.3-82.1,33.7l0,0c-24-12.5-53.5-6.8-71.1,13.9l0,0
		c-23.3,27.4-65.7,27.2-88.8-0.3l0,0c-17.4-20.8-46.9-26.7-71-14.4l0,0c-32,16.4-71.1,0-81.9-34.3l0,0C537,1012.7,512,996,485,998.1
		l0,0c-35.9,2.9-65.7-27.2-62.5-63l0,0c2.4-27-14.2-52-40-60.4l0,0c-34.2-11.1-50.3-50.2-33.7-82.1l0,0c12.5-24,6.8-53.5-13.9-71.1
		l0,0c-27.4-23.3-27.2-65.7,0.3-88.8l0,0c20.8-17.4,26.7-46.9,14.4-71l0,0c-16.4-32,0-71.1,34.3-81.9l0,0
		c25.8-8.1,42.6-33.1,40.5-60.1l0,0c-2.9-35.9,27.2-65.7,63-62.5l0,0c27,2.4,52-14.2,60.4-40l0,0c11.1-34.2,50.2-50.3,82.1-33.7l0,0
		c24,12.5,53.5,6.8,71.1-13.9l0,0c23.3-27.4,65.7-27.2,88.8,0.3l0,0c17.4,20.8,46.9,26.7,71,14.4l0,0c32-16.4,71.1,0,81.9,34.3l0,0
		c8.1,25.9,33.1,42.6,60.1,40.5l0,0c35.9-2.9,65.7,27.2,62.5,63l0,0c-2.4,27,14.2,52,40,60.4l0,0c34.2,11.1,50.3,50.2,33.7,82.1l0,0
		c-12.5,24-6.8,53.5,13.9,71.1l0,0C1180.3,659,1180.2,701.4,1152.6,724.5z"/>
	<path class="st2" d="M747.9,1131.9c-2.6,0-4.7-2.1-4.7-4.6c0-2.6,2.1-4.7,4.6-4.7c3.7,0,7.4-0.1,11.1-0.2c2.6-0.1,4.7,1.9,4.8,4.5
		s-1.9,4.7-4.5,4.8C755.5,1131.8,751.7,1131.9,747.9,1131.9C748,1131.9,748,1131.9,747.9,1131.9z M729.2,1131.7c-0.1,0-0.1,0-0.2,0
		c-3.8-0.1-7.6-0.3-11.4-0.5c-2.6-0.1-4.6-2.4-4.4-4.9c0.1-2.6,2.3-4.5,4.9-4.4c3.7,0.2,7.4,0.4,11.1,0.5c2.6,0.1,4.6,2.2,4.5,4.8
		C733.8,1129.7,731.7,1131.7,729.2,1131.7z M777.9,1130.7c-2.4,0-4.5-1.9-4.7-4.3c-0.2-2.6,1.7-4.8,4.3-5c3.7-0.3,7.4-0.6,11.1-1
		c2.6-0.3,4.9,1.6,5.1,4.2c0.3,2.6-1.6,4.9-4.2,5.1c-3.8,0.4-7.6,0.7-11.3,1C778.1,1130.7,778,1130.7,777.9,1130.7z M699.3,1129.7
		c-0.2,0-0.3,0-0.5,0c-3.7-0.4-7.5-0.8-11.3-1.3c-2.6-0.3-4.4-2.7-4.1-5.2c0.3-2.6,2.7-4.4,5.2-4.1c3.7,0.5,7.4,0.9,11.1,1.2
		c2.6,0.3,4.4,2.5,4.2,5.1C703.7,1127.9,701.7,1129.7,699.3,1129.7z M807.7,1127.4c-2.3,0-4.3-1.7-4.6-4c-0.4-2.6,1.4-4.9,4-5.3
		c3.7-0.5,7.4-1.1,11-1.7c2.6-0.4,5,1.3,5.4,3.8s-1.3,5-3.8,5.4c-3.7,0.6-7.5,1.2-11.2,1.7C808.1,1127.4,807.9,1127.4,807.7,1127.4z
		 M669.6,1125.8c-0.3,0-0.5,0-0.8-0.1c-3.7-0.6-7.5-1.3-11.2-2c-2.5-0.5-4.2-2.9-3.7-5.5s2.9-4.2,5.5-3.7c3.6,0.7,7.3,1.4,11,2
		c2.5,0.4,4.3,2.8,3.8,5.4C673.8,1124.2,671.8,1125.8,669.6,1125.8z M837.2,1122.2c-2.2,0-4.1-1.5-4.6-3.7c-0.5-2.5,1.1-5,3.6-5.5
		c3.6-0.8,7.2-1.6,10.9-2.4c2.5-0.6,5,1,5.6,3.5s-1,5-3.5,5.6c-3.7,0.9-7.4,1.7-11.1,2.5C837.9,1122.2,837.5,1122.2,837.2,1122.2z
		 M640.2,1119.9c-0.4,0-0.7,0-1.1-0.1c-3.7-0.9-7.4-1.8-11-2.8c-2.5-0.7-4-3.2-3.3-5.7s3.2-4,5.7-3.3c3.6,0.9,7.2,1.8,10.8,2.7
		c2.5,0.6,4.1,3.1,3.5,5.6C644.2,1118.4,642.3,1119.9,640.2,1119.9z M866.3,1115.1c-2,0-3.9-1.3-4.5-3.4c-0.7-2.5,0.7-5.1,3.2-5.8
		c3.5-1,7.1-2.1,10.7-3.2c2.5-0.8,5.1,0.6,5.9,3.1c0.8,2.5-0.6,5.1-3.1,5.9c-3.6,1.1-7.3,2.2-10.9,3.2
		C867.2,1115,866.8,1115.1,866.3,1115.1z M611.2,1112c-0.5,0-0.9-0.1-1.4-0.2c-3.6-1.1-7.3-2.3-10.9-3.5c-2.4-0.8-3.8-3.5-2.9-5.9
		c0.8-2.4,3.5-3.8,5.9-2.9c3.5,1.2,7.1,2.3,10.6,3.4c2.5,0.8,3.9,3.4,3.1,5.9C615.1,1110.7,613.2,1112,611.2,1112z M894.9,1105.9
		c-1.9,0-3.7-1.2-4.4-3.1c-0.9-2.4,0.4-5.1,2.8-6c3.5-1.2,7-2.5,10.4-3.9c2.4-0.9,5.1,0.3,6,2.7c0.9,2.4-0.3,5.1-2.7,6
		c-3.5,1.4-7.1,2.7-10.7,4C896,1105.8,895.4,1105.9,894.9,1105.9z M582.8,1102.1c-0.6,0-1.1-0.1-1.7-0.3c-3.5-1.4-7.1-2.8-10.6-4.2
		c-2.4-1-3.5-3.7-2.5-6.1s3.7-3.5,6.1-2.5c3.4,1.4,6.9,2.8,10.4,4.1c2.4,0.9,3.6,3.6,2.7,6C586.5,1101,584.7,1102.1,582.8,1102.1z
		 M922.7,1094.9c-1.8,0-3.5-1.1-4.3-2.8c-1-2.4,0.1-5.1,2.4-6.2c3.4-1.5,6.8-3,10.1-4.5c2.3-1.1,5.1-0.1,6.2,2.3
		c1.1,2.3,0.1,5.1-2.3,6.2c-3.4,1.6-6.9,3.2-10.3,4.6C924,1094.8,923.4,1094.9,922.7,1094.9z M555.1,1090.4c-0.7,0-1.3-0.1-2-0.4
		c-3.4-1.6-6.9-3.3-10.3-4.9c-2.3-1.1-3.3-4-2.1-6.3c1.1-2.3,4-3.3,6.3-2.1c3.3,1.6,6.7,3.3,10.1,4.8c2.3,1.1,3.4,3.9,2.3,6.2
		C558.6,1089.4,556.9,1090.4,555.1,1090.4z M949.8,1082.1c-1.7,0-3.3-0.9-4.2-2.5c-1.2-2.3-0.3-5.1,2-6.3c3.3-1.7,6.6-3.4,9.8-5.2
		c2.3-1.2,5.1-0.4,6.4,1.8c1.2,2.3,0.4,5.1-1.8,6.4c-3.3,1.8-6.7,3.6-10,5.3C951.2,1081.9,950.5,1082.1,949.8,1082.1z M528.3,1076.8
		c-0.8,0-1.5-0.2-2.2-0.6c-3.3-1.8-6.6-3.7-9.9-5.6c-2.2-1.3-3-4.2-1.7-6.4c1.3-2.2,4.2-3,6.4-1.7c3.2,1.9,6.5,3.7,9.7,5.5
		c2.3,1.2,3.1,4.1,1.8,6.4C531.6,1075.9,530,1076.8,528.3,1076.8z M975.9,1067.5c-1.6,0-3.1-0.8-4-2.3c-1.3-2.2-0.6-5.1,1.6-6.4
		c3.2-1.9,6.3-3.9,9.4-5.9c2.2-1.4,5.1-0.8,6.5,1.4c1.4,2.2,0.8,5.1-1.4,6.5c-3.2,2-6.4,4-9.6,6
		C977.5,1067.2,976.7,1067.5,975.9,1067.5z M502.5,1061.5c-0.9,0-1.7-0.2-2.5-0.7c-3.2-2-6.4-4.1-9.5-6.2c-2.1-1.4-2.7-4.4-1.3-6.5
		c1.4-2.1,4.4-2.7,6.5-1.3c3.1,2.1,6.2,4.1,9.3,6.1c2.2,1.4,2.8,4.3,1.4,6.5C505.6,1060.7,504.1,1061.5,502.5,1061.5z M1001,1051.1
		c-1.5,0-2.9-0.7-3.8-2c-1.5-2.1-1-5,1.2-6.5c3-2.1,6.1-4.3,9-6.5c2.1-1.5,5-1.1,6.5,1s1.1,5-1,6.5c-3,2.2-6.1,4.5-9.2,6.6
		C1002.8,1050.9,1001.9,1051.1,1001,1051.1z M477.8,1044.5c-1,0-1.9-0.3-2.8-0.9c-3-2.2-6.1-4.5-9.1-6.9c-2-1.6-2.4-4.5-0.8-6.6
		c1.6-2,4.5-2.4,6.6-0.8c2.9,2.3,5.9,4.5,8.9,6.7c2.1,1.5,2.5,4.5,1,6.5C480.6,1043.8,479.2,1044.5,477.8,1044.5z M1024.9,1033.1
		c-1.4,0-2.7-0.6-3.6-1.7c-1.6-2-1.3-5,0.7-6.6c2.9-2.3,5.8-4.7,8.6-7.1c2-1.7,4.9-1.4,6.6,0.6c1.7,2,1.4,4.9-0.6,6.6
		c-2.9,2.4-5.8,4.8-8.8,7.2C1027,1032.8,1025.9,1033.1,1024.9,1033.1z M454.3,1025.9c-1.1,0-2.1-0.4-3-1.1c-2.9-2.4-5.8-4.9-8.6-7.5
		c-1.9-1.7-2.1-4.7-0.4-6.6s4.7-2.1,6.6-0.4c2.8,2.5,5.6,4.9,8.4,7.3c2,1.7,2.2,4.6,0.5,6.6C456.9,1025.3,455.6,1025.9,454.3,1025.9
		z M1047.6,1013.6c-1.3,0-2.5-0.5-3.4-1.5c-1.7-1.9-1.6-4.9,0.3-6.6c2.7-2.5,5.4-5.1,8.1-7.6c1.9-1.8,4.8-1.7,6.6,0.1
		c1.8,1.9,1.7,4.8-0.1,6.6c-2.7,2.6-5.5,5.2-8.3,7.8C1049.9,1013.2,1048.8,1013.6,1047.6,1013.6z M432,1005.7
		c-1.2,0-2.3-0.4-3.3-1.3c-2.7-2.6-5.4-5.3-8.1-8c-1.8-1.8-1.8-4.8,0.1-6.6c1.8-1.8,4.8-1.8,6.6,0.1c2.6,2.6,5.2,5.3,7.9,7.8
		c1.9,1.8,1.9,4.8,0.1,6.6C434.5,1005.3,433.2,1005.7,432,1005.7z M1069,992.6c-1.2,0-2.3-0.4-3.2-1.3c-1.9-1.8-1.9-4.7-0.2-6.6
		c2.5-2.7,5.1-5.4,7.6-8.2c1.7-1.9,4.7-2.1,6.6-0.3c1.9,1.7,2.1,4.7,0.3,6.6c-2.5,2.8-5.1,5.6-7.7,8.3
		C1071.5,992.1,1070.3,992.6,1069,992.6z M411.2,984.2c-1.3,0-2.5-0.5-3.5-1.5c-2.5-2.8-5.1-5.7-7.5-8.5c-1.7-2-1.5-4.9,0.5-6.6
		c2-1.7,4.9-1.5,6.6,0.5c2.4,2.8,4.9,5.6,7.4,8.3c1.7,1.9,1.6,4.9-0.3,6.6C413.4,983.8,412.3,984.2,411.2,984.2z M1089,970.2
		c-1.1,0-2.1-0.4-3-1.1c-2-1.7-2.3-4.6-0.6-6.6c2.4-2.8,4.7-5.8,7-8.6c1.6-2,4.5-2.4,6.6-0.8c2,1.6,2.4,4.5,0.8,6.6
		c-2.3,3-4.7,5.9-7.2,8.8C1091.6,969.6,1090.3,970.2,1089,970.2z M391.8,961.3c-1.4,0-2.8-0.6-3.7-1.8c-2.3-2.9-4.7-6-6.9-9
		c-1.6-2.1-1.1-5,0.9-6.6c2.1-1.6,5-1.1,6.6,0.9c2.2,3,4.5,5.9,6.8,8.8c1.6,2,1.3,5-0.8,6.6C393.9,961,392.8,961.3,391.8,961.3z
		 M1107.4,946.5c-1,0-1.9-0.3-2.7-0.9c-2.1-1.5-2.6-4.4-1-6.5c2.2-3,4.3-6.1,6.4-9.1c1.5-2.1,4.4-2.7,6.5-1.2s2.7,4.4,1.2,6.5
		c-2.1,3.1-4.3,6.2-6.6,9.3C1110.3,945.8,1108.8,946.5,1107.4,946.5z M374,937.2c-1.5,0-3-0.7-3.9-2c-2.1-3.1-4.3-6.3-6.3-9.4
		c-1.4-2.2-0.8-5.1,1.4-6.5c2.2-1.4,5.1-0.8,6.5,1.4c2,3.1,4.1,6.2,6.2,9.2c1.5,2.1,0.9,5-1.2,6.5
		C375.9,936.9,374.9,937.2,374,937.2z M1124.2,921.7c-0.9,0-1.7-0.2-2.5-0.7c-2.2-1.4-2.8-4.3-1.5-6.5c2-3.1,3.9-6.3,5.8-9.5
		c1.3-2.2,4.2-3,6.4-1.6c2.2,1.3,3,4.2,1.6,6.4c-1.9,3.2-3.9,6.5-5.9,9.7C1127.3,920.9,1125.8,921.7,1124.2,921.7z M357.9,912
		c-1.6,0-3.2-0.8-4-2.3c-1.9-3.2-3.8-6.5-5.7-9.8c-1.3-2.3-0.5-5.1,1.8-6.4c2.3-1.3,5.1-0.5,6.4,1.8c1.8,3.2,3.7,6.4,5.6,9.6
		c1.3,2.2,0.6,5.1-1.6,6.4C359.5,911.8,358.7,912,357.9,912z M1139.3,895.7c-0.7,0-1.5-0.2-2.2-0.6c-2.3-1.2-3.1-4.1-1.9-6.3
		c1.8-3.3,3.5-6.6,5.2-9.9c1.2-2.3,4-3.2,6.3-2.1c2.3,1.2,3.2,4,2.1,6.3c-1.7,3.4-3.5,6.8-5.3,10.1
		C1142.6,894.8,1141,895.7,1139.3,895.7z M343.5,885.8c-1.7,0-3.4-0.9-4.2-2.6c-1.7-3.3-3.4-6.8-5-10.2c-1.1-2.3-0.1-5.1,2.2-6.2
		c2.3-1.1,5.1-0.1,6.2,2.2c1.6,3.3,3.2,6.7,4.9,10c1.2,2.3,0.2,5.1-2.1,6.3C344.9,885.6,344.2,885.8,343.5,885.8z M1152.7,868.8
		c-0.6,0-1.3-0.1-1.9-0.4c-2.4-1.1-3.4-3.8-2.3-6.2c1.5-3.4,3-6.8,4.5-10.2c1-2.4,3.8-3.5,6.1-2.5c2.4,1,3.5,3.8,2.5,6.1
		c-1.5,3.5-3,7-4.6,10.4C1156.2,867.8,1154.5,868.8,1152.7,868.8z M330.9,858.7c-1.8,0-3.6-1.1-4.3-2.8c-1.5-3.5-2.9-7-4.3-10.5
		c-1-2.4,0.2-5.1,2.6-6.1c2.4-0.9,5.1,0.2,6.1,2.6c1.4,3.4,2.8,6.9,4.2,10.3c1,2.4-0.1,5.1-2.5,6.1
		C332.1,858.5,331.5,858.7,330.9,858.7z M1164.2,841c-0.5,0-1.1-0.1-1.6-0.3c-2.4-0.9-3.6-3.6-2.7-6c1.3-3.5,2.6-7,3.8-10.5
		c0.8-2.4,3.5-3.7,6-2.9c2.4,0.8,3.7,3.5,2.9,6c-1.2,3.6-2.6,7.2-3.9,10.7C1167.9,839.9,1166.1,841,1164.2,841z M320.1,830.7
		c-1.9,0-3.7-1.2-4.4-3.1c-1.2-3.6-2.5-7.2-3.6-10.8c-0.8-2.5,0.6-5.1,3-5.9c2.5-0.8,5.1,0.6,5.9,3c1.1,3.5,2.3,7.1,3.5,10.6
		c0.8,2.4-0.4,5.1-2.9,6C321.1,830.6,320.6,830.7,320.1,830.7z M1173.8,812.5c-0.4,0-0.9-0.1-1.3-0.2c-2.5-0.7-3.9-3.4-3.1-5.8
		c1.1-3.5,2.1-7.1,3.1-10.7c0.7-2.5,3.3-4,5.7-3.3c2.5,0.7,4,3.3,3.3,5.7c-1,3.6-2,7.3-3.1,10.9
		C1177.7,811.2,1175.8,812.5,1173.8,812.5z M311.2,802.1c-2.1,0-3.9-1.4-4.5-3.4c-1-3.6-2-7.3-2.9-11c-0.6-2.5,0.9-5,3.4-5.7
		c2.5-0.6,5,0.9,5.7,3.4c0.9,3.6,1.8,7.2,2.8,10.8c0.7,2.5-0.8,5.1-3.3,5.7C312,802,311.6,802.1,311.2,802.1z M1181.5,783.5
		c-0.3,0-0.7,0-1-0.1c-2.5-0.6-4.1-3.1-3.5-5.6c0.8-3.6,1.6-7.2,2.3-10.9c0.5-2.5,3-4.2,5.5-3.7s4.2,3,3.7,5.5
		c-0.7,3.7-1.6,7.4-2.4,11.1C1185.5,782.1,1183.6,783.5,1181.5,783.5z M304.2,772.9c-2.2,0-4.1-1.5-4.6-3.7
		c-0.8-3.7-1.5-7.5-2.1-11.2c-0.5-2.5,1.2-5,3.8-5.4c2.5-0.5,5,1.2,5.4,3.8c0.6,3.6,1.3,7.3,2.1,10.9c0.5,2.5-1.1,5-3.7,5.5
		C304.8,772.9,304.5,772.9,304.2,772.9z M1187.2,754.1c-0.2,0-0.5,0-0.7-0.1c-2.6-0.4-4.3-2.8-3.9-5.4c0.6-3.7,1.1-7.4,1.6-11
		c0.3-2.6,2.7-4.4,5.3-4c2.6,0.3,4.4,2.7,4,5.3c-0.5,3.7-1,7.5-1.6,11.2C1191.4,752.5,1189.4,754.1,1187.2,754.1z M299.2,743.4
		c-2.3,0-4.3-1.7-4.6-4.1c-0.5-3.7-1-7.5-1.4-11.3c-0.3-2.6,1.6-4.9,4.1-5.2c2.6-0.3,4.9,1.6,5.2,4.1c0.4,3.7,0.8,7.4,1.3,11
		c0.3,2.6-1.5,4.9-4,5.3C299.7,743.3,299.4,743.4,299.2,743.4z M1190.9,724.4c-0.1,0-0.3,0-0.4,0c-2.6-0.2-4.5-2.5-4.2-5.1
		c0.3-3.7,0.6-7.4,0.9-11.1c0.2-2.6,2.4-4.5,5-4.4c2.6,0.2,4.5,2.4,4.4,5c-0.2,3.8-0.5,7.6-0.9,11.3
		C1195.3,722.5,1193.3,724.4,1190.9,724.4z M296.3,713.5c-2.4,0-4.5-1.9-4.7-4.4c-0.3-3.8-0.5-7.6-0.6-11.3
		c-0.1-2.6,1.9-4.8,4.5-4.9c2.6-0.1,4.8,1.9,4.9,4.5c0.2,3.7,0.4,7.4,0.6,11.1c0.2,2.6-1.8,4.8-4.4,5
		C296.5,713.5,296.4,713.5,296.3,713.5z M1192.6,694.4L1192.6,694.4c-2.7-0.1-4.7-2.2-4.7-4.8c0.1-3.7,0.1-7.5,0.1-11.1v-0.8
		c0-2.6,2.1-4.7,4.7-4.7s4.7,2.1,4.7,4.7v0.8c0,3.8,0,7.6-0.1,11.4C1197.2,692.4,1195.1,694.4,1192.6,694.4z M295.2,683.5
		c-2.6,0-4.7-2.1-4.7-4.7v-0.4c0-3.6,0-7.3,0.1-11c0.1-2.6,2.2-4.6,4.8-4.6c2.6,0.1,4.6,2.2,4.6,4.8c-0.1,3.6-0.1,7.2-0.1,10.8v0.4
		C299.9,681.5,297.8,683.5,295.2,683.5z M1192.3,663.7c-2.5,0-4.6-2-4.7-4.5c-0.2-3.7-0.4-7.4-0.6-11.1c-0.2-2.6,1.8-4.8,4.4-5
		s4.8,1.8,5,4.4c0.3,3.8,0.5,7.6,0.6,11.3c0.1,2.6-1.9,4.8-4.5,4.9C1192.5,663.7,1192.4,663.7,1192.3,663.7z M296.2,653.6
		c-0.1,0-0.2,0-0.3,0c-2.6-0.2-4.5-2.4-4.4-5c0.2-3.8,0.5-7.6,0.9-11.3c0.2-2.6,2.5-4.5,5.1-4.2c2.6,0.2,4.5,2.5,4.2,5.1
		c-0.3,3.7-0.6,7.4-0.9,11.1C300.7,651.7,298.7,653.6,296.2,653.6z M1190.1,633.8c-2.4,0-4.4-1.8-4.6-4.2c-0.4-3.7-0.9-7.4-1.3-11
		c-0.3-2.6,1.5-4.9,4-5.3c2.6-0.3,4.9,1.5,5.3,4c0.5,3.8,1,7.5,1.4,11.3c0.3,2.6-1.6,4.9-4.1,5.2
		C1190.4,633.7,1190.2,633.8,1190.1,633.8z M299.2,623.7c-0.2,0-0.4,0-0.6,0c-2.6-0.3-4.4-2.7-4-5.3c0.5-3.7,1-7.5,1.6-11.2
		c0.4-2.6,2.8-4.3,5.4-3.9c2.6,0.4,4.3,2.8,3.9,5.4c-0.6,3.7-1.1,7.4-1.6,11C303.5,622,301.5,623.7,299.2,623.7z M1185.8,604.1
		c-2.2,0-4.2-1.6-4.6-3.9c-0.6-3.6-1.3-7.3-2.1-10.9c-0.5-2.5,1.1-5,3.7-5.5c2.5-0.5,5,1.1,5.5,3.6c0.8,3.7,1.5,7.5,2.1,11.2
		c0.5,2.5-1.2,5-3.8,5.4C1186.3,604.1,1186.1,604.1,1185.8,604.1z M304.1,594.2c-0.3,0-0.6,0-0.9-0.1c-2.5-0.5-4.2-3-3.7-5.5
		c0.7-3.7,1.5-7.4,2.4-11.1c0.6-2.5,3.1-4.1,5.6-3.5s4.1,3.1,3.5,5.6c-0.8,3.6-1.6,7.3-2.3,10.9
		C308.2,592.6,306.3,594.2,304.1,594.2z M1179.6,574.8c-2.1,0-4-1.4-4.5-3.6c-0.9-3.6-1.8-7.2-2.8-10.8c-0.7-2.5,0.8-5.1,3.3-5.8
		s5.1,0.8,5.8,3.3c1,3.6,2,7.3,2.9,11c0.6,2.5-0.9,5-3.4,5.7C1180.3,574.7,1179.9,574.8,1179.6,574.8z M311,565
		c-0.4,0-0.8-0.1-1.2-0.2c-2.5-0.7-4-3.3-3.3-5.7c1-3.6,2-7.3,3.1-10.9c0.7-2.5,3.3-3.9,5.8-3.1c2.5,0.7,3.9,3.4,3.1,5.8
		c-1.1,3.5-2.1,7.1-3.1,10.7C314.9,563.6,313,565,311,565z M1171.4,545.9c-2,0-3.8-1.3-4.5-3.3c-1.1-3.5-2.3-7.1-3.5-10.6
		c-0.9-2.4,0.4-5.1,2.9-6c2.4-0.9,5.1,0.4,6,2.9c1.2,3.6,2.5,7.2,3.6,10.8c0.8,2.5-0.6,5.1-3,5.9
		C1172.3,545.8,1171.8,545.9,1171.4,545.9z M319.8,536.3c-0.5,0-1-0.1-1.5-0.3c-2.4-0.8-3.7-3.5-2.9-6c1.2-3.6,2.5-7.2,3.9-10.7
		c0.9-2.4,3.6-3.6,6-2.7c2.4,0.9,3.6,3.6,2.7,6c-1.3,3.5-2.6,7-3.8,10.5C323.6,535.1,321.8,536.3,319.8,536.3z M1161.2,517.7
		c-1.9,0-3.6-1.1-4.4-3c-1.4-3.4-2.8-6.9-4.2-10.3c-1-2.4,0.1-5.1,2.5-6.1s5.1,0.1,6.1,2.5c1.5,3.5,2.9,7,4.3,10.5
		c1,2.4-0.2,5.1-2.6,6.1C1162.4,517.6,1161.8,517.7,1161.2,517.7z M330.6,508.3c-0.6,0-1.2-0.1-1.8-0.4c-2.4-1-3.5-3.8-2.5-6.1
		c1.5-3.5,3-7,4.6-10.4c1.1-2.4,3.8-3.4,6.2-2.3c2.4,1.1,3.4,3.8,2.3,6.2c-1.5,3.4-3,6.8-4.5,10.2
		C334.2,507.2,332.4,508.3,330.6,508.3z M1149.3,490.3c-1.7,0-3.4-1-4.2-2.7c-1.6-3.3-3.2-6.7-4.9-10c-1.2-2.3-0.3-5.1,2.1-6.3
		c2.3-1.2,5.1-0.3,6.3,2.1c1.7,3.4,3.4,6.8,5,10.2c1.1,2.3,0.1,5.1-2.2,6.2C1150.7,490.1,1150,490.3,1149.3,490.3z M343.3,481
		c-0.7,0-1.4-0.2-2.1-0.5c-2.3-1.2-3.2-4-2.1-6.3c1.7-3.4,3.5-6.8,5.3-10.1c1.2-2.3,4.1-3.1,6.3-1.9c2.3,1.2,3.1,4.1,1.9,6.3
		c-1.7,3.3-3.5,6.6-5.2,9.9C346.6,480.1,345,481,343.3,481z M1135.5,463.7c-1.6,0-3.2-0.9-4.1-2.4c-1.8-3.2-3.7-6.5-5.6-9.6
		c-1.3-2.2-0.6-5.1,1.6-6.4s5.1-0.6,6.4,1.6c1.9,3.2,3.8,6.5,5.7,9.8c1.3,2.3,0.5,5.1-1.8,6.4
		C1137.1,463.5,1136.3,463.7,1135.5,463.7z M357.7,454.7c-0.8,0-1.6-0.2-2.4-0.7c-2.2-1.3-3-4.2-1.6-6.4c1.9-3.3,3.9-6.5,5.9-9.7
		c1.4-2.2,4.3-2.9,6.5-1.5s2.9,4.3,1.5,6.5c-2,3.1-3.9,6.3-5.8,9.5C360.9,453.9,359.3,454.7,357.7,454.7z M1120,438.1
		c-1.5,0-3-0.7-3.9-2.1c-2-3.1-4.1-6.2-6.2-9.2c-1.5-2.1-0.9-5,1.2-6.5s5-0.9,6.5,1.2c2.1,3.1,4.3,6.3,6.3,9.4
		c1.4,2.2,0.8,5.1-1.4,6.5C1121.8,437.9,1120.9,438.1,1120,438.1z M373.9,429.4c-0.9,0-1.8-0.3-2.6-0.8c-2.1-1.5-2.7-4.4-1.2-6.5
		c2.1-3.1,4.3-6.2,6.6-9.3c1.5-2.1,4.4-2.6,6.5-1c2.1,1.5,2.6,4.4,1,6.5c-2.2,3-4.3,6.1-6.4,9.1
		C376.8,428.7,375.3,429.4,373.9,429.4z M1102.8,413.6c-1.4,0-2.8-0.6-3.7-1.9c-2.2-2.9-4.5-5.9-6.8-8.8c-1.6-2-1.3-5,0.8-6.6
		c2-1.6,5-1.3,6.6,0.8c2.3,3,4.7,6,6.9,9c1.6,2.1,1.1,5-0.9,6.6C1104.8,413.3,1103.8,413.6,1102.8,413.6z M391.7,405.2
		c-1,0-2-0.3-2.9-1c-2-1.6-2.4-4.5-0.8-6.6c2.3-3,4.7-5.9,7.2-8.8c1.7-2,4.6-2.3,6.6-0.6c2,1.7,2.3,4.6,0.6,6.6
		c-2.4,2.8-4.7,5.8-7,8.7C394.4,404.6,393,405.2,391.7,405.2z M1084,390.3c-1.3,0-2.6-0.6-3.5-1.6c-2.4-2.8-4.9-5.6-7.4-8.3
		c-1.7-1.9-1.6-4.9,0.3-6.6s4.9-1.6,6.6,0.3c2.5,2.8,5.1,5.7,7.5,8.5c1.7,2,1.5,4.9-0.5,6.6C1086.2,389.9,1085.1,390.3,1084,390.3z
		 M411,382.3c-1.1,0-2.2-0.4-3.1-1.2c-1.9-1.7-2.1-4.7-0.3-6.6c2.5-2.8,5.1-5.6,7.7-8.3c1.8-1.9,4.7-1.9,6.6-0.2
		c1.9,1.8,1.9,4.7,0.2,6.6c-2.5,2.7-5.1,5.4-7.6,8.2C413.6,381.8,412.3,382.3,411,382.3z M1063.7,368.2c-1.2,0-2.4-0.5-3.3-1.4
		c-2.6-2.6-5.2-5.3-7.9-7.8c-1.9-1.8-1.9-4.8-0.1-6.6c1.8-1.9,4.8-1.9,6.6-0.1c2.7,2.6,5.4,5.3,8.1,8c1.8,1.8,1.8,4.8-0.1,6.6
		C1066,367.8,1064.9,368.2,1063.7,368.2z M431.9,360.8c-1.2,0-2.4-0.5-3.4-1.4c-1.8-1.9-1.7-4.8,0.1-6.6c2.7-2.6,5.5-5.2,8.3-7.8
		c1.9-1.8,4.9-1.6,6.6,0.3c1.8,1.9,1.6,4.9-0.3,6.6c-2.7,2.5-5.4,5.1-8.1,7.6C434.2,360.3,433,360.8,431.9,360.8z M1041.9,347.6
		c-1.1,0-2.2-0.4-3.1-1.2c-2.8-2.4-5.6-4.9-8.4-7.3c-2-1.7-2.2-4.6-0.6-6.6c1.7-2,4.6-2.2,6.6-0.6c2.9,2.4,5.8,4.9,8.6,7.4
		c1.9,1.7,2.1,4.7,0.4,6.6C1044.5,347.1,1043.2,347.6,1041.9,347.6z M454.1,340.6c-1.3,0-2.6-0.6-3.6-1.7c-1.7-2-1.4-4.9,0.5-6.6
		c2.9-2.4,5.8-4.9,8.8-7.2c2-1.6,5-1.3,6.6,0.7s1.3,5-0.7,6.6c-2.9,2.3-5.8,4.7-8.6,7.1C456.2,340.3,455.2,340.6,454.1,340.6z
		 M1018.8,328.4c-1,0-2-0.3-2.9-1c-2.9-2.3-5.9-4.5-8.9-6.7c-2.1-1.5-2.5-4.5-1-6.5c1.5-2.1,4.5-2.5,6.5-1c3,2.2,6.1,4.6,9.1,6.9
		c2,1.6,2.4,4.5,0.8,6.6C1021.6,327.8,1020.2,328.4,1018.8,328.4z M477.6,322c-1.4,0-2.8-0.7-3.8-1.9c-1.5-2.1-1.1-5,1-6.5
		c3-2.2,6.1-4.5,9.2-6.6c2.1-1.5,5-1,6.5,1.1s1,5-1.1,6.5c-3,2.1-6.1,4.3-9,6.5C479.5,321.7,478.6,322,477.6,322z M994.5,310.8
		c-0.9,0-1.8-0.3-2.6-0.8c-3.1-2.1-6.2-4.1-9.3-6.1c-2.2-1.4-2.8-4.3-1.4-6.5c1.4-2.2,4.3-2.8,6.5-1.4c3.2,2,6.4,4.1,9.5,6.2
		c2.1,1.4,2.7,4.4,1.3,6.5C997.5,310.1,996,310.8,994.5,310.8z M502.3,305c-1.5,0-3.1-0.8-3.9-2.2c-1.4-2.2-0.8-5.1,1.4-6.5
		c3.2-2,6.4-4,9.6-6c2.2-1.3,5.1-0.6,6.4,1.6s0.6,5.1-1.6,6.4c-3.2,1.9-6.3,3.9-9.4,5.9C504,304.8,503.1,305,502.3,305z
		 M969.1,294.9c-0.8,0-1.6-0.2-2.3-0.6c-3.2-1.9-6.5-3.7-9.7-5.5c-2.3-1.2-3.1-4.1-1.9-6.4c1.2-2.3,4.1-3.1,6.4-1.9
		c3.3,1.8,6.7,3.7,9.9,5.6c2.2,1.3,3,4.2,1.7,6.4C972.3,294,970.7,294.9,969.1,294.9z M528,289.7c-1.7,0-3.3-0.9-4.1-2.4
		c-1.2-2.3-0.4-5.1,1.8-6.4c3.3-1.8,6.7-3.6,10-5.3c2.3-1.2,5.1-0.3,6.3,2s0.3,5.1-2,6.3c-3.3,1.7-6.6,3.5-9.8,5.2
		C529.5,289.6,528.7,289.7,528,289.7z M942.6,280.7c-0.7,0-1.4-0.2-2.1-0.5c-3.3-1.6-6.7-3.3-10.1-4.8c-2.3-1.1-3.4-3.9-2.3-6.2
		s3.9-3.4,6.2-2.3c3.4,1.6,6.9,3.2,10.3,4.9c2.3,1.1,3.3,4,2.1,6.3C946,279.7,944.4,280.7,942.6,280.7z M554.7,276.2
		c-1.8,0-3.5-1-4.2-2.7c-1.1-2.3-0.1-5.1,2.3-6.2c3.4-1.6,6.9-3.2,10.3-4.7c2.4-1,5.1,0.1,6.2,2.4c1,2.4-0.1,5.1-2.4,6.2
		c-3.4,1.5-6.8,3-10.1,4.6C556,276.1,555.3,276.2,554.7,276.2z M915.3,268.3c-0.6,0-1.2-0.1-1.8-0.4c-3.4-1.4-6.9-2.8-10.4-4.1
		c-2.4-0.9-3.6-3.6-2.7-6c0.9-2.4,3.6-3.6,6-2.7c3.5,1.4,7.1,2.8,10.6,4.2c2.4,1,3.5,3.7,2.5,6.1
		C918.8,267.2,917.1,268.3,915.3,268.3z M582.2,264.5c-1.9,0-3.6-1.1-4.4-3c-0.9-2.4,0.3-5.1,2.7-6.1c3.5-1.4,7.1-2.7,10.7-4
		c2.4-0.9,5.1,0.4,6,2.8c0.9,2.4-0.4,5.1-2.8,6c-3.5,1.2-7,2.6-10.4,3.9C583.3,264.4,582.7,264.5,582.2,264.5z M887.1,257.7
		c-0.5,0-1-0.1-1.5-0.2c-3.5-1.2-7.1-2.3-10.6-3.4c-2.5-0.8-3.9-3.4-3.1-5.9c0.8-2.5,3.4-3.9,5.9-3.1c3.6,1.1,7.3,2.3,10.9,3.5
		c2.4,0.8,3.8,3.5,2.9,5.9C890.9,256.5,889.1,257.7,887.1,257.7z M610.5,254.6c-2,0-3.8-1.3-4.5-3.3c-0.8-2.5,0.6-5.1,3.1-5.9
		c3.6-1.1,7.3-2.2,10.9-3.2c2.5-0.7,5.1,0.7,5.8,3.2s-0.7,5.1-3.2,5.8c-3.6,1-7.2,2.1-10.7,3.2C611.4,254.6,610.9,254.6,610.5,254.6
		z M858.3,249.1c-0.4,0-0.8-0.1-1.2-0.2c-3.6-0.9-7.2-1.8-10.8-2.7c-2.5-0.6-4.1-3.1-3.5-5.6s3.1-4.1,5.6-3.5
		c3.7,0.9,7.4,1.8,11,2.7c2.5,0.7,4,3.2,3.3,5.7C862.3,247.7,860.4,249.1,858.3,249.1z M639.4,246.7c-2.1,0-4-1.4-4.5-3.6
		c-0.6-2.5,1-5,3.5-5.6c3.7-0.9,7.4-1.7,11.1-2.5c2.5-0.5,5,1.1,5.5,3.6s-1.1,5-3.6,5.5c-3.6,0.8-7.3,1.6-10.9,2.4
		C640.1,246.6,639.8,246.7,639.4,246.7z M829.1,242.5c-0.3,0-0.6,0-0.9-0.1c-3.6-0.7-7.3-1.4-11-2c-2.5-0.4-4.3-2.8-3.9-5.4
		c0.4-2.5,2.8-4.3,5.4-3.8c3.7,0.6,7.5,1.3,11.2,2c2.5,0.5,4.2,2.9,3.7,5.5C833.3,240.9,831.3,242.5,829.1,242.5z M668.8,240.7
		c-2.2,0-4.2-1.6-4.6-3.9c-0.4-2.5,1.3-5,3.8-5.4c3.7-0.6,7.5-1.2,11.2-1.8c2.6-0.4,4.9,1.4,5.3,4c0.4,2.6-1.4,4.9-4,5.3
		c-3.7,0.5-7.4,1.1-11,1.7C669.3,240.7,669,240.7,668.8,240.7z M799.5,237.8c-0.2,0-0.4,0-0.6,0c-3.7-0.5-7.4-0.9-11.1-1.2
		c-2.6-0.3-4.5-2.5-4.2-5.1s2.5-4.5,5.1-4.2c3.8,0.4,7.6,0.8,11.3,1.2c2.6,0.3,4.4,2.7,4.1,5.2C803.8,236.1,801.8,237.8,799.5,237.8
		z M698.5,236.7c-2.4,0-4.4-1.8-4.7-4.2c-0.3-2.6,1.6-4.9,4.2-5.1c3.8-0.4,7.6-0.7,11.3-1c2.6-0.2,4.8,1.7,5,4.3s-1.7,4.8-4.3,5
		c-3.7,0.3-7.4,0.6-11.1,1C698.8,236.7,698.6,236.7,698.5,236.7z M769.6,235.1c-0.1,0-0.2,0-0.3,0c-3.7-0.2-7.4-0.4-11.1-0.5
		c-2.6-0.1-4.6-2.2-4.5-4.8s2.3-4.6,4.8-4.5c3.8,0.1,7.6,0.3,11.4,0.5c2.6,0.1,4.6,2.4,4.4,4.9C774.1,233.2,772.1,235.1,769.6,235.1
		z M728.4,234.7c-2.5,0-4.6-2-4.7-4.5c-0.1-2.6,1.9-4.7,4.5-4.8c3.8-0.1,7.6-0.2,11.3-0.2c2.6,0,4.7,2,4.7,4.6s-2,4.7-4.6,4.7
		c-3.7,0-7.4,0.1-11.1,0.2C728.5,234.7,728.5,234.7,728.4,234.7z"/>
	<g>
		<polygon class="st0" points="809.7,980.8 816.2,994 830.7,996.1 820.2,1006.3 822.7,1020.8 809.7,1014 796.7,1020.8 799.2,1006.3 
			788.7,996.1 803.2,994 		"/>
		<polygon class="st0" points="742.6,980.8 749.1,994 763.6,996.1 753.1,1006.3 755.6,1020.8 742.6,1014 729.6,1020.8 732.1,1006.3 
			721.6,996.1 736.1,994 		"/>
		<polygon class="st0" points="675.5,980.8 682,994 696.5,996.1 686,1006.3 688.5,1020.8 675.5,1014 662.5,1020.8 665,1006.3 
			654.5,996.1 669,994 		"/>
	</g>
</g>
</svg>
